<mxfile host="65bd71144e">
    <diagram id="qBb4_GqLNoIKR6zqsaRt" name="Page-1">
        <mxGraphModel dx="1506" dy="829" grid="1" gridSize="10" guides="1" tooltips="1" connect="1" arrows="1" fold="1" page="1" pageScale="1" pageWidth="1920" pageHeight="1200" math="0" shadow="0">
            <root>
                <mxCell id="0"/>
                <mxCell id="1" parent="0"/>
                <mxCell id="2" value="Initial Patient Ingestion&lt;br&gt;(Hopefully through an export)" style="rounded=0;whiteSpace=wrap;html=1;" parent="1" vertex="1">
                    <mxGeometry x="200" y="40" width="240" height="100" as="geometry"/>
                </mxCell>
                <mxCell id="3" value="POST Immunization" style="rounded=0;whiteSpace=wrap;html=1;" parent="1" vertex="1">
                    <mxGeometry x="40" y="240" width="120" height="60" as="geometry"/>
                </mxCell>
                <mxCell id="4" value="POST Vitals" style="rounded=0;whiteSpace=wrap;html=1;" parent="1" vertex="1">
                    <mxGeometry x="200" y="240" width="120" height="60" as="geometry"/>
                </mxCell>
                <mxCell id="5" value="POST Allergy" style="rounded=0;whiteSpace=wrap;html=1;" parent="1" vertex="1">
                    <mxGeometry x="360" y="240" width="120" height="60" as="geometry"/>
                </mxCell>
                <mxCell id="6" value="POST Medication" style="rounded=0;whiteSpace=wrap;html=1;" parent="1" vertex="1">
                    <mxGeometry x="520" y="240" width="120" height="60" as="geometry"/>
                </mxCell>
                <mxCell id="8" value="Subsciptions" style="text;html=1;strokeColor=none;fillColor=none;align=center;verticalAlign=middle;whiteSpace=wrap;rounded=0;strokeWidth=0;fontSize=30;" parent="1" vertex="1">
                    <mxGeometry x="290" y="190" width="60" height="30" as="geometry"/>
                </mxCell>
                <mxCell id="9" value="GET Immunization" style="rounded=0;whiteSpace=wrap;html=1;" parent="1" vertex="1">
                    <mxGeometry x="40" y="470" width="120" height="60" as="geometry"/>
                </mxCell>
                <mxCell id="10" value="GET Vitals" style="rounded=0;whiteSpace=wrap;html=1;" parent="1" vertex="1">
                    <mxGeometry x="200" y="470" width="120" height="60" as="geometry"/>
                </mxCell>
                <mxCell id="11" value="GET Allergy" style="rounded=0;whiteSpace=wrap;html=1;" parent="1" vertex="1">
                    <mxGeometry x="360" y="470" width="120" height="60" as="geometry"/>
                </mxCell>
                <mxCell id="12" value="GET Medication" style="rounded=0;whiteSpace=wrap;html=1;" parent="1" vertex="1">
                    <mxGeometry x="520" y="470" width="120" height="60" as="geometry"/>
                </mxCell>
                <mxCell id="15" value="Scheduled" style="text;html=1;strokeColor=none;fillColor=none;align=center;verticalAlign=middle;whiteSpace=wrap;rounded=0;strokeWidth=0;fontSize=30;" parent="1" vertex="1">
                    <mxGeometry x="290" y="420" width="60" height="30" as="geometry"/>
                </mxCell>
                <mxCell id="17" value="sqs" style="shape=process;whiteSpace=wrap;html=1;backgroundOutline=1;strokeWidth=0;fontSize=30;" parent="1" vertex="1">
                    <mxGeometry x="260" y="640" width="120" height="60" as="geometry"/>
                </mxCell>
                <mxCell id="18" value="" style="endArrow=classic;html=1;fontSize=30;exitX=0.5;exitY=1;exitDx=0;exitDy=0;entryX=0.5;entryY=0;entryDx=0;entryDy=0;" parent="1" source="11" target="17" edge="1">
                    <mxGeometry width="50" height="50" relative="1" as="geometry">
                        <mxPoint x="360" y="440" as="sourcePoint"/>
                        <mxPoint x="430" y="620" as="targetPoint"/>
                    </mxGeometry>
                </mxCell>
                <mxCell id="19" value="" style="endArrow=classic;html=1;fontSize=30;entryX=0.5;entryY=0;entryDx=0;entryDy=0;exitX=0.5;exitY=1;exitDx=0;exitDy=0;" parent="1" source="12" target="17" edge="1">
                    <mxGeometry width="50" height="50" relative="1" as="geometry">
                        <mxPoint x="580" y="540" as="sourcePoint"/>
                        <mxPoint x="330" y="650" as="targetPoint"/>
                    </mxGeometry>
                </mxCell>
                <mxCell id="20" value="" style="endArrow=classic;html=1;fontSize=30;exitX=0.5;exitY=1;exitDx=0;exitDy=0;" parent="1" source="10" edge="1">
                    <mxGeometry width="50" height="50" relative="1" as="geometry">
                        <mxPoint x="360" y="440" as="sourcePoint"/>
                        <mxPoint x="320" y="640" as="targetPoint"/>
                    </mxGeometry>
                </mxCell>
                <mxCell id="21" value="" style="endArrow=classic;html=1;fontSize=30;exitX=0.5;exitY=1;exitDx=0;exitDy=0;entryX=0.5;entryY=0;entryDx=0;entryDy=0;" parent="1" source="9" target="17" edge="1">
                    <mxGeometry width="50" height="50" relative="1" as="geometry">
                        <mxPoint x="440" y="550" as="sourcePoint"/>
                        <mxPoint x="340" y="660" as="targetPoint"/>
                    </mxGeometry>
                </mxCell>
                <mxCell id="22" value="" style="endArrow=classic;html=1;fontSize=30;exitX=0.5;exitY=1;exitDx=0;exitDy=0;" parent="1" source="17" edge="1">
                    <mxGeometry width="50" height="50" relative="1" as="geometry">
                        <mxPoint x="350" y="780" as="sourcePoint"/>
                        <mxPoint x="320" y="760" as="targetPoint"/>
                    </mxGeometry>
                </mxCell>
                <mxCell id="23" value="Ingestion lambda" style="rounded=0;whiteSpace=wrap;html=1;strokeWidth=0;fontSize=30;" parent="1" vertex="1">
                    <mxGeometry x="235" y="760" width="170" height="90" as="geometry"/>
                </mxCell>
                <mxCell id="24" value="" style="endArrow=classic;html=1;fontSize=30;" parent="1" edge="1">
                    <mxGeometry width="50" height="50" relative="1" as="geometry">
                        <mxPoint x="405" y="810" as="sourcePoint"/>
                        <mxPoint x="520" y="810" as="targetPoint"/>
                    </mxGeometry>
                </mxCell>
                <mxCell id="25" value="ddb" style="shape=cylinder3;whiteSpace=wrap;html=1;boundedLbl=1;backgroundOutline=1;size=15;strokeWidth=0;fontSize=30;" parent="1" vertex="1">
                    <mxGeometry x="520" y="770" width="60" height="80" as="geometry"/>
                </mxCell>
                <mxCell id="27" value="" style="shape=ext;double=1;rounded=0;whiteSpace=wrap;html=1;strokeWidth=0;fontSize=30;fillColor=none;" parent="1" vertex="1">
                    <mxGeometry x="30" y="230" width="620" height="80" as="geometry"/>
                </mxCell>
                <mxCell id="45" value="&lt;font style=&quot;font-size: 12px;&quot;&gt;AthenaPracticeId&lt;/font&gt;" style="edgeStyle=none;html=1;exitX=1;exitY=0.5;exitDx=0;exitDy=0;exitPerimeter=0;fontSize=24;" parent="1" source="28" target="39" edge="1">
                    <mxGeometry relative="1" as="geometry">
                        <Array as="points">
                            <mxPoint x="1389" y="199"/>
                        </Array>
                    </mxGeometry>
                </mxCell>
                <mxCell id="48" value="AthenaPracticeId" style="edgeStyle=none;html=1;exitX=1;exitY=0.5;exitDx=0;exitDy=0;exitPerimeter=0;fontSize=12;" parent="1" source="28" target="49" edge="1">
                    <mxGeometry relative="1" as="geometry">
                        <mxPoint x="1379" y="340" as="targetPoint"/>
                    </mxGeometry>
                </mxCell>
                <mxCell id="28" value="AthenaOnboardPractice&lt;br&gt;" style="sketch=0;points=[[0,0,0],[0.25,0,0],[0.5,0,0],[0.75,0,0],[1,0,0],[0,1,0],[0.25,1,0],[0.5,1,0],[0.75,1,0],[1,1,0],[0,0.25,0],[0,0.5,0],[0,0.75,0],[1,0.25,0],[1,0.5,0],[1,0.75,0]];outlineConnect=0;fontColor=#232F3E;gradientColor=#F78E04;gradientDirection=north;fillColor=#D05C17;strokeColor=#ffffff;dashed=0;verticalLabelPosition=top;verticalAlign=bottom;align=center;html=1;fontSize=12;fontStyle=0;aspect=fixed;shape=mxgraph.aws4.resourceIcon;resIcon=mxgraph.aws4.lambda;labelPosition=center;" parent="1" vertex="1">
                    <mxGeometry x="1140" y="160" width="78" height="78" as="geometry"/>
                </mxCell>
                <mxCell id="34" value="&lt;font style=&quot;font-size: 24px;&quot;&gt;Rincon - Athena Integ&lt;/font&gt;" style="text;html=1;strokeColor=none;fillColor=none;align=center;verticalAlign=middle;whiteSpace=wrap;rounded=0;fontSize=18;" parent="1" vertex="1">
                    <mxGeometry x="880" y="75" width="240" height="30" as="geometry"/>
                </mxCell>
                <mxCell id="39" value="AthenaSubscribePractice" style="sketch=0;points=[[0,0,0],[0.25,0,0],[0.5,0,0],[0.75,0,0],[1,0,0],[0,1,0],[0.25,1,0],[0.5,1,0],[0.75,1,0],[1,1,0],[0,0.25,0],[0,0.5,0],[0,0.75,0],[1,0.25,0],[1,0.5,0],[1,0.75,0]];outlineConnect=0;fontColor=#232F3E;gradientColor=#F78E04;gradientDirection=north;fillColor=#D05C17;strokeColor=#ffffff;dashed=0;verticalLabelPosition=top;verticalAlign=bottom;align=center;html=1;fontSize=12;fontStyle=0;aspect=fixed;shape=mxgraph.aws4.resourceIcon;resIcon=mxgraph.aws4.lambda;labelPosition=center;" parent="1" vertex="1">
                    <mxGeometry x="1609" y="160" width="78" height="78" as="geometry"/>
                </mxCell>
                <mxCell id="46" value="&lt;div&gt;&lt;span style=&quot;font-size: 12px;&quot;&gt;&lt;br&gt;&lt;/span&gt;&lt;/div&gt;&lt;ul style=&quot;border-color: var(--border-color); font-size: 12px;&quot;&gt;&lt;li&gt;&lt;span style=&quot;background-color: initial;&quot;&gt;subscription endpoints&lt;/span&gt;&lt;br&gt;&lt;/li&gt;&lt;ul style=&quot;border-color: var(--border-color);&quot;&gt;&lt;li style=&quot;border-color: var(--border-color);&quot;&gt;Insurance&lt;/li&gt;&lt;li style=&quot;border-color: var(--border-color);&quot;&gt;MedicationRequest&lt;/li&gt;&lt;li style=&quot;border-color: var(--border-color);&quot;&gt;Problem&lt;/li&gt;&lt;li style=&quot;border-color: var(--border-color);&quot;&gt;Encounter&lt;/li&gt;&lt;li style=&quot;border-color: var(--border-color);&quot;&gt;Appointment&lt;/li&gt;&lt;li style=&quot;border-color: var(--border-color);&quot;&gt;Allergy*&lt;/li&gt;&lt;li style=&quot;border-color: var(--border-color);&quot;&gt;Immunization*&lt;/li&gt;&lt;li style=&quot;border-color: var(--border-color);&quot;&gt;Vitals*&lt;/li&gt;&lt;/ul&gt;&lt;/ul&gt;" style="text;html=1;strokeColor=none;fillColor=none;align=left;verticalAlign=middle;whiteSpace=wrap;rounded=0;fontSize=24;" parent="1" vertex="1">
                    <mxGeometry x="1660" y="140" width="210" height="220" as="geometry"/>
                </mxCell>
                <mxCell id="52" value="jobUrl" style="edgeStyle=none;html=1;exitX=0;exitY=0.5;exitDx=0;exitDy=0;exitPerimeter=0;fontSize=12;" parent="1" source="49" target="55" edge="1">
                    <mxGeometry relative="1" as="geometry">
                        <mxPoint x="1182.19" y="173.5" as="targetPoint"/>
                    </mxGeometry>
                </mxCell>
                <mxCell id="49" value="AthenaBulkExportInitiate" style="sketch=0;points=[[0,0,0],[0.25,0,0],[0.5,0,0],[0.75,0,0],[1,0,0],[0,1,0],[0.25,1,0],[0.5,1,0],[0.75,1,0],[1,1,0],[0,0.25,0],[0,0.5,0],[0,0.75,0],[1,0.25,0],[1,0.5,0],[1,0.75,0]];outlineConnect=0;fontColor=#232F3E;gradientColor=#F78E04;gradientDirection=north;fillColor=#D05C17;strokeColor=#ffffff;dashed=0;verticalLabelPosition=top;verticalAlign=bottom;align=center;html=1;fontSize=12;fontStyle=0;aspect=fixed;shape=mxgraph.aws4.resourceIcon;resIcon=mxgraph.aws4.lambda;labelPosition=center;" parent="1" vertex="1">
                    <mxGeometry x="1592.19" y="403.5" width="78" height="78" as="geometry"/>
                </mxCell>
                <mxCell id="50" value="&lt;ul&gt;&lt;li&gt;&lt;span style=&quot;background-color: initial;&quot;&gt;Calls Bulk Export Endpoint to initiate the creation of the export object&lt;/span&gt;&lt;/li&gt;&lt;/ul&gt;" style="text;html=1;strokeColor=none;fillColor=none;align=center;verticalAlign=middle;whiteSpace=wrap;rounded=0;fontSize=12;" parent="1" vertex="1">
                    <mxGeometry x="1571.19" y="481.5" width="210" height="57.5" as="geometry"/>
                </mxCell>
                <mxCell id="51" value="New AthenaPracticeId" style="endArrow=classic;html=1;fontSize=12;exitX=1;exitY=0.5;exitDx=0;exitDy=0;exitPerimeter=0;entryX=0;entryY=0.5;entryDx=0;entryDy=0;entryPerimeter=0;" parent="1" source="88" target="28" edge="1">
                    <mxGeometry width="50" height="50" relative="1" as="geometry">
                        <mxPoint x="990" y="200" as="sourcePoint"/>
                        <mxPoint x="1100" y="198.5" as="targetPoint"/>
                    </mxGeometry>
                </mxCell>
                <mxCell id="53" value="&lt;font style=&quot;font-size: 18px;&quot;&gt;Athena Practice Onboard&lt;/font&gt;" style="text;html=1;strokeColor=none;fillColor=none;align=center;verticalAlign=middle;whiteSpace=wrap;rounded=0;fontSize=12;" parent="1" vertex="1">
                    <mxGeometry x="880" y="110" width="210" height="30" as="geometry"/>
                </mxCell>
                <mxCell id="54" value="Updates / Scheduled Jobs" style="text;html=1;strokeColor=none;fillColor=none;align=center;verticalAlign=middle;whiteSpace=wrap;rounded=0;fontSize=18;" parent="1" vertex="1">
                    <mxGeometry x="950" y="403.5" width="150" height="30" as="geometry"/>
                </mxCell>
                <mxCell id="78" value="AHPresigned S3 URL" style="edgeStyle=none;html=1;" parent="1" source="55" target="77" edge="1">
                    <mxGeometry relative="1" as="geometry"/>
                </mxCell>
                <mxCell id="55" value="AthenaBulkExportPoll" style="sketch=0;points=[[0,0,0],[0.25,0,0],[0.5,0,0],[0.75,0,0],[1,0,0],[0,1,0],[0.25,1,0],[0.5,1,0],[0.75,1,0],[1,1,0],[0,0.25,0],[0,0.5,0],[0,0.75,0],[1,0.25,0],[1,0.5,0],[1,0.75,0]];outlineConnect=0;fontColor=#232F3E;gradientColor=#F78E04;gradientDirection=north;fillColor=#D05C17;strokeColor=#ffffff;dashed=0;verticalLabelPosition=top;verticalAlign=bottom;align=center;html=1;fontSize=12;fontStyle=0;aspect=fixed;shape=mxgraph.aws4.resourceIcon;resIcon=mxgraph.aws4.lambda;labelPosition=center;" parent="1" vertex="1">
                    <mxGeometry x="1372.19" y="403.5" width="78" height="78" as="geometry"/>
                </mxCell>
                <mxCell id="56" value="AthenaGetSubscribedEvents" style="sketch=0;points=[[0,0,0],[0.25,0,0],[0.5,0,0],[0.75,0,0],[1,0,0],[0,1,0],[0.25,1,0],[0.5,1,0],[0.75,1,0],[1,1,0],[0,0.25,0],[0,0.5,0],[0,0.75,0],[1,0.25,0],[1,0.5,0],[1,0.75,0]];outlineConnect=0;fontColor=#232F3E;gradientColor=#F78E04;gradientDirection=north;fillColor=#D05C17;strokeColor=#ffffff;dashed=0;verticalLabelPosition=top;verticalAlign=bottom;align=center;html=1;fontSize=12;fontStyle=0;aspect=fixed;shape=mxgraph.aws4.resourceIcon;resIcon=mxgraph.aws4.lambda;labelPosition=center;" parent="1" vertex="1">
                    <mxGeometry x="1010" y="473.5" width="78" height="78" as="geometry"/>
                </mxCell>
                <mxCell id="57" value="Calls all subscription endpoints" style="text;html=1;strokeColor=none;fillColor=none;align=center;verticalAlign=middle;whiteSpace=wrap;rounded=0;fontSize=12;" parent="1" vertex="1">
                    <mxGeometry x="1100" y="495" width="60" height="30" as="geometry"/>
                </mxCell>
                <mxCell id="123" value="" style="edgeStyle=none;html=1;" edge="1" parent="1" source="62" target="122">
                    <mxGeometry relative="1" as="geometry"/>
                </mxCell>
                <mxCell id="62" value="AthenaPractices" style="sketch=0;points=[[0,0,0],[0.25,0,0],[0.5,0,0],[0.75,0,0],[1,0,0],[0,1,0],[0.25,1,0],[0.5,1,0],[0.75,1,0],[1,1,0],[0,0.25,0],[0,0.5,0],[0,0.75,0],[1,0.25,0],[1,0.5,0],[1,0.75,0]];outlineConnect=0;fontColor=#232F3E;gradientColor=#4D72F3;gradientDirection=north;fillColor=#3334B9;strokeColor=#ffffff;dashed=0;verticalLabelPosition=bottom;verticalAlign=top;align=center;html=1;fontSize=12;fontStyle=0;aspect=fixed;shape=mxgraph.aws4.resourceIcon;resIcon=mxgraph.aws4.dynamodb;labelBackgroundColor=none;" parent="1" vertex="1">
                    <mxGeometry x="730" y="473.5" width="78" height="78" as="geometry"/>
                </mxCell>
                <mxCell id="74" value="AthenaBulkExportScheduler" style="sketch=0;points=[[0,0,0],[0.25,0,0],[0.5,0,0],[0.75,0,0],[1,0,0],[0,1,0],[0.25,1,0],[0.5,1,0],[0.75,1,0],[1,1,0],[0,0.25,0],[0,0.5,0],[0,0.75,0],[1,0.25,0],[1,0.5,0],[1,0.75,0]];outlineConnect=0;fontColor=#232F3E;gradientColor=#FF4F8B;gradientDirection=north;fillColor=#BC1356;strokeColor=#ffffff;dashed=0;verticalLabelPosition=bottom;verticalAlign=top;align=center;html=1;fontSize=12;fontStyle=0;aspect=fixed;shape=mxgraph.aws4.resourceIcon;resIcon=mxgraph.aws4.eventbridge;" parent="1" vertex="1">
                    <mxGeometry x="1550" y="578" width="78" height="78" as="geometry"/>
                </mxCell>
                <mxCell id="76" value="" style="edgeStyle=orthogonalEdgeStyle;html=1;endArrow=open;elbow=vertical;startArrow=open;startFill=0;endFill=0;strokeColor=#545B64;rounded=0;entryX=0.5;entryY=0;entryDx=0;entryDy=0;entryPerimeter=0;exitX=1;exitY=1;exitDx=0;exitDy=0;exitPerimeter=0;" parent="1" source="55" target="74" edge="1">
                    <mxGeometry width="100" relative="1" as="geometry">
                        <mxPoint x="1450.19" y="453.5" as="sourcePoint"/>
                        <mxPoint x="1512.19" y="493.5" as="targetPoint"/>
                    </mxGeometry>
                </mxCell>
                <mxCell id="79" value="RetryAfter" style="edgeLabel;html=1;align=center;verticalAlign=middle;resizable=0;points=[];" parent="76" vertex="1" connectable="0">
                    <mxGeometry x="0.105" y="-3" relative="1" as="geometry">
                        <mxPoint as="offset"/>
                    </mxGeometry>
                </mxCell>
                <mxCell id="77" value="AthenaDownloadBulkExport" style="sketch=0;points=[[0,0,0],[0.25,0,0],[0.5,0,0],[0.75,0,0],[1,0,0],[0,1,0],[0.25,1,0],[0.5,1,0],[0.75,1,0],[1,1,0],[0,0.25,0],[0,0.5,0],[0,0.75,0],[1,0.25,0],[1,0.5,0],[1,0.75,0]];outlineConnect=0;fontColor=#232F3E;gradientColor=#F78E04;gradientDirection=north;fillColor=#D05C17;strokeColor=#ffffff;dashed=0;verticalLabelPosition=bottom;verticalAlign=top;align=center;html=1;fontSize=12;fontStyle=0;aspect=fixed;shape=mxgraph.aws4.resourceIcon;resIcon=mxgraph.aws4.lambda;labelPosition=center;" parent="1" vertex="1">
                    <mxGeometry x="1372.19" y="663.5" width="78" height="78" as="geometry"/>
                </mxCell>
                <mxCell id="105" value="" style="edgeStyle=none;html=1;fontSize=20;entryX=0.5;entryY=0;entryDx=0;entryDy=0;" parent="1" target="104" edge="1">
                    <mxGeometry relative="1" as="geometry">
                        <mxPoint x="1829.6773846952433" y="749" as="sourcePoint"/>
                        <mxPoint x="1829.0049508678262" y="790.0012397860992" as="targetPoint"/>
                    </mxGeometry>
                </mxCell>
                <mxCell id="81" value="" style="outlineConnect=0;dashed=0;verticalLabelPosition=bottom;verticalAlign=top;align=center;html=1;shape=mxgraph.aws3.s3;fillColor=#E05243;gradientColor=none;" parent="1" vertex="1">
                    <mxGeometry x="1793.5" y="656" width="76.5" height="93" as="geometry"/>
                </mxCell>
                <mxCell id="82" value="" style="edgeStyle=orthogonalEdgeStyle;html=1;endArrow=block;elbow=vertical;startArrow=none;endFill=1;strokeColor=#545B64;rounded=0;exitX=1;exitY=0.5;exitDx=0;exitDy=0;exitPerimeter=0;entryX=0;entryY=0.5;entryDx=0;entryDy=0;entryPerimeter=0;" parent="1" source="77" target="81" edge="1">
                    <mxGeometry width="100" relative="1" as="geometry">
                        <mxPoint x="1492.19" y="753.5" as="sourcePoint"/>
                        <mxPoint x="1760" y="710" as="targetPoint"/>
                    </mxGeometry>
                </mxCell>
                <mxCell id="83" value="Download to S3" style="edgeLabel;html=1;align=center;verticalAlign=middle;resizable=0;points=[];" parent="82" vertex="1" connectable="0">
                    <mxGeometry x="-0.165" y="1" relative="1" as="geometry">
                        <mxPoint as="offset"/>
                    </mxGeometry>
                </mxCell>
                <mxCell id="84" value="unknowns:&lt;br&gt;&lt;div style=&quot;&quot;&gt;&lt;span style=&quot;background-color: initial;&quot;&gt;* F&lt;/span&gt;&lt;span style=&quot;background-color: initial;&quot;&gt;ormat&lt;/span&gt;&lt;/div&gt;* Concurrency" style="shape=note;strokeWidth=2;fontSize=14;size=20;whiteSpace=wrap;html=1;fillColor=#fff2cc;strokeColor=#d6b656;fontColor=#666600;align=left;" parent="1" vertex="1">
                    <mxGeometry x="1362.19" y="780" width="110" height="80" as="geometry"/>
                </mxCell>
                <mxCell id="88" value="AppSync/GraphQL API" style="points=[[0,0,0],[0.25,0,0],[0.5,0,0],[0.75,0,0],[1,0,0],[0,1,0],[0.25,1,0],[0.5,1,0],[0.75,1,0],[1,1,0],[0,0.25,0],[0,0.5,0],[0,0.75,0],[1,0.25,0],[1,0.5,0],[1,0.75,0]];outlineConnect=0;fontColor=#232F3E;gradientColor=#F34482;gradientDirection=north;fillColor=#BC1356;strokeColor=#ffffff;dashed=0;verticalLabelPosition=top;verticalAlign=bottom;align=center;html=1;fontSize=12;fontStyle=0;aspect=fixed;shape=mxgraph.aws4.resourceIcon;resIcon=mxgraph.aws4.appsync;labelPosition=center;" parent="1" vertex="1">
                    <mxGeometry x="906" y="160" width="78" height="78" as="geometry"/>
                </mxCell>
                <mxCell id="91" value="Per-Org Infrastructure" style="text;html=1;strokeColor=none;fillColor=none;align=center;verticalAlign=middle;whiteSpace=wrap;rounded=0;fontSize=20;" parent="1" vertex="1">
                    <mxGeometry x="850" y="340" width="240" height="30" as="geometry"/>
                </mxCell>
                <mxCell id="118" value="" style="edgeStyle=none;html=1;" edge="1" parent="1" source="92" target="117">
                    <mxGeometry relative="1" as="geometry"/>
                </mxCell>
                <mxCell id="92" value="PatientIngestQueue" style="sketch=0;points=[[0,0,0],[0.25,0,0],[0.5,0,0],[0.75,0,0],[1,0,0],[0,1,0],[0.25,1,0],[0.5,1,0],[0.75,1,0],[1,1,0],[0,0.25,0],[0,0.5,0],[0,0.75,0],[1,0.25,0],[1,0.5,0],[1,0.75,0]];outlineConnect=0;fontColor=#232F3E;gradientColor=#FF4F8B;gradientDirection=north;fillColor=#BC1356;strokeColor=#ffffff;dashed=0;verticalLabelPosition=bottom;verticalAlign=top;align=center;html=1;fontSize=12;fontStyle=0;aspect=fixed;shape=mxgraph.aws4.resourceIcon;resIcon=mxgraph.aws4.sqs;" parent="1" vertex="1">
                    <mxGeometry x="1012" y="793.5" width="78" height="78" as="geometry"/>
                </mxCell>
                <mxCell id="96" value="Appointments / Encounter&lt;br&gt;Insurance / Medications&amp;nbsp;&lt;br&gt;Problem" style="sketch=0;points=[[0,0,0],[0.25,0,0],[0.5,0,0],[0.75,0,0],[1,0,0],[0,1,0],[0.25,1,0],[0.5,1,0],[0.75,1,0],[1,1,0],[0,0.25,0],[0,0.5,0],[0,0.75,0],[1,0.25,0],[1,0.5,0],[1,0.75,0]];outlineConnect=0;fontColor=#232F3E;gradientColor=#4D72F3;gradientDirection=north;fillColor=#3334B9;strokeColor=#ffffff;dashed=0;verticalLabelPosition=bottom;verticalAlign=top;align=center;html=1;fontSize=12;fontStyle=0;aspect=fixed;shape=mxgraph.aws4.resourceIcon;resIcon=mxgraph.aws4.dynamodb;" parent="1" vertex="1">
                    <mxGeometry x="750" y="793.5" width="78" height="78" as="geometry"/>
                </mxCell>
                <mxCell id="103" value="unknowns:&lt;br&gt;* Format&lt;br&gt;* Flag received events" style="shape=note;strokeWidth=2;fontSize=14;size=20;whiteSpace=wrap;html=1;fillColor=#fff2cc;strokeColor=#d6b656;fontColor=#666600;align=left;" parent="1" vertex="1">
                    <mxGeometry x="1100" y="550" width="150" height="80" as="geometry"/>
                </mxCell>
                <mxCell id="104" value="FHIR&lt;br&gt;BulkExport Parser" style="ellipse;whiteSpace=wrap;html=1;verticalAlign=middle;fillColor=#E05243;dashed=0;gradientColor=none;" parent="1" vertex="1">
                    <mxGeometry x="1790" y="788" width="80" height="80" as="geometry"/>
                </mxCell>
                <mxCell id="110" value="how are we handling failure?" style="text;html=1;align=center;verticalAlign=middle;resizable=0;points=[];autosize=1;strokeColor=none;fillColor=none;" vertex="1" parent="1">
                    <mxGeometry x="1720" y="427.5" width="180" height="30" as="geometry"/>
                </mxCell>
                <mxCell id="115" value="patientJsonIngestion Queue" style="sketch=0;points=[[0,0,0],[0.25,0,0],[0.5,0,0],[0.75,0,0],[1,0,0],[0,1,0],[0.25,1,0],[0.5,1,0],[0.75,1,0],[1,1,0],[0,0.25,0],[0,0.5,0],[0,0.75,0],[1,0.25,0],[1,0.5,0],[1,0.75,0]];outlineConnect=0;fontColor=#232F3E;gradientColor=#FF4F8B;gradientDirection=north;fillColor=#BC1356;strokeColor=#ffffff;dashed=0;verticalLabelPosition=bottom;verticalAlign=top;align=center;html=1;fontSize=12;fontStyle=0;aspect=fixed;shape=mxgraph.aws4.resourceIcon;resIcon=mxgraph.aws4.sqs;" vertex="1" parent="1">
                    <mxGeometry x="1558.69" y="790" width="78" height="78" as="geometry"/>
                </mxCell>
                <mxCell id="116" value="" style="endArrow=classic;html=1;entryX=1;entryY=0.5;entryDx=0;entryDy=0;entryPerimeter=0;exitX=0;exitY=0.5;exitDx=0;exitDy=0;" edge="1" parent="1" source="104" target="115">
                    <mxGeometry width="50" height="50" relative="1" as="geometry">
                        <mxPoint x="1780" y="850" as="sourcePoint"/>
                        <mxPoint x="1428.69" y="660" as="targetPoint"/>
                    </mxGeometry>
                </mxCell>
                <mxCell id="119" value="" style="edgeStyle=none;html=1;" edge="1" parent="1" source="117" target="96">
                    <mxGeometry relative="1" as="geometry"/>
                </mxCell>
                <mxCell id="117" value="GetPatientData" style="sketch=0;points=[[0,0,0],[0.25,0,0],[0.5,0,0],[0.75,0,0],[1,0,0],[0,1,0],[0.25,1,0],[0.5,1,0],[0.75,1,0],[1,1,0],[0,0.25,0],[0,0.5,0],[0,0.75,0],[1,0.25,0],[1,0.5,0],[1,0.75,0]];outlineConnect=0;fontColor=#232F3E;gradientColor=#F78E04;gradientDirection=north;fillColor=#D05C17;strokeColor=#ffffff;dashed=0;verticalLabelPosition=top;verticalAlign=bottom;align=center;html=1;fontSize=12;fontStyle=0;aspect=fixed;shape=mxgraph.aws4.resourceIcon;resIcon=mxgraph.aws4.lambda;labelPosition=center;" vertex="1" parent="1">
                    <mxGeometry x="872" y="793.5" width="78" height="78" as="geometry"/>
                </mxCell>
                <mxCell id="120" value="" style="endArrow=classic;html=1;exitX=0.5;exitY=1;exitDx=0;exitDy=0;exitPerimeter=0;entryX=0.5;entryY=0;entryDx=0;entryDy=0;entryPerimeter=0;" edge="1" parent="1" source="56" target="92">
                    <mxGeometry width="50" height="50" relative="1" as="geometry">
                        <mxPoint x="1230" y="840" as="sourcePoint"/>
                        <mxPoint x="1280" y="790" as="targetPoint"/>
                    </mxGeometry>
                </mxCell>
                <mxCell id="121" value="Only Requested&lt;br&gt;record types" style="shape=note;strokeWidth=2;fontSize=14;size=20;whiteSpace=wrap;html=1;fillColor=#fff2cc;strokeColor=#d6b656;fontColor=#666600;" vertex="1" parent="1">
                    <mxGeometry x="1108" y="791.5" width="110.00000000000001" height="80" as="geometry"/>
                </mxCell>
                <mxCell id="124" value="" style="edgeStyle=none;html=1;" edge="1" parent="1" source="122" target="56">
                    <mxGeometry relative="1" as="geometry"/>
                </mxCell>
                <mxCell id="122" value="DailyScheduler" style="sketch=0;points=[[0,0,0],[0.25,0,0],[0.5,0,0],[0.75,0,0],[1,0,0],[0,1,0],[0.25,1,0],[0.5,1,0],[0.75,1,0],[1,1,0],[0,0.25,0],[0,0.5,0],[0,0.75,0],[1,0.25,0],[1,0.5,0],[1,0.75,0]];outlineConnect=0;fontColor=#232F3E;gradientColor=#FF4F8B;gradientDirection=north;fillColor=#BC1356;strokeColor=#ffffff;dashed=0;verticalLabelPosition=bottom;verticalAlign=top;align=center;html=1;fontSize=12;fontStyle=0;aspect=fixed;shape=mxgraph.aws4.resourceIcon;resIcon=mxgraph.aws4.eventbridge;" vertex="1" parent="1">
                    <mxGeometry x="860" y="473.5" width="78" height="78" as="geometry"/>
                </mxCell>
            </root>
        </mxGraphModel>
    </diagram>
</mxfile>